# xmcd
#
# Track frame offsets:
#	183
#	14633
#	30705
#	45993
#	64360
#	78313
#	92700
#	107448
#	121900
#	138603
#	156365
#	171533
#
# Disc length: 2522 seconds
#
# Revision: 1
# Processed by: cddbd v1.5.2PL0 Copyright (c) Steve Scherf et al.
# Submitted via: audiograbber 1.83.01
#
DISCID=a009d80c
DTITLE=Teddy Edelmann - Går Det Ikk' Går Det Nok
DYEAR=1993
DGENRE=Pop
TTITLE0=GÅR DET IKK' SÅ GÅR DET NOK
TTITLE1=100 ÅR OG EEN SOMMER
TTITLE2=ET SKRIDT FREM
TTITLE3=TO TILOVERS
TTITLE4=HJERTER ES
TTITLE5=MERE SPORT PÅ DEN ANDEN KANAL
TTITLE6=HAR VI ET HÅB?
TTITLE7=FÆTTER JUKEBOX
TTITLE8=FRØKEN DANMARK
TTITLE9=UDEN ORD
TTITLE10=TEMPO TEMPO
TTITLE11=MELLEM HIMMEL OG HAV
EXTD=
EXTT0=
EXTT1=
EXTT2=
EXTT3=
EXTT4=
EXTT5=
EXTT6=
EXTT7=
EXTT8=
EXTT9=
EXTT10=
EXTT11=
PLAYORDER=
